<svg xmlns="http://www.w3.org/2000/svg" width="28.808" height="22.01" viewBox="0 0 28.808 22.01">
  <g id="BagiBarang_logo" data-name="BagiBarang logo" transform="translate(-199.838 -810.184)">
    <path id="hand-holding-heart-solid" d="M28.271,14.325a1.841,1.841,0,0,0-2.13,0l-4.621,3.231a3.482,3.482,0,0,1-2,.612H13.6a.706.706,0,1,1,0-1.4h3.916a1.631,1.631,0,0,0,1.665-1.163,1.473,1.473,0,0,0-1.58-1.635h-8A6.431,6.431,0,0,0,5.9,15.121L3.571,16.769H.8a.757.757,0,0,0-.8.7v4.2a.757.757,0,0,0,.8.7H18.644a3.505,3.505,0,0,0,2-.612l7.562-5.291A1.29,1.29,0,0,0,28.271,14.325Z" transform="translate(199.838 809.829)"/>
    <path id="archive-solid" d="M.776,42.972a.811.811,0,0,0,.776.844h9.312a.811.811,0,0,0,.776-.844v-7.6H.776Zm3.88-5.592a.305.305,0,0,1,.291-.317H7.469a.305.305,0,0,1,.291.317v.211a.305.305,0,0,1-.291.317H4.947a.305.305,0,0,1-.291-.317ZM11.641,32H.776A.811.811,0,0,0,0,32.844V34.11a.407.407,0,0,0,.388.422H12.029a.407.407,0,0,0,.388-.422V32.844A.811.811,0,0,0,11.641,32Z" transform="translate(212.5 778.184)"/>
  </g>
</svg>
