<svg xmlns="http://www.w3.org/2000/svg" width="25" height="25" viewBox="0 0 25 25">
  <g id="volunteer_activism_black_24dp" transform="translate(0 1)">
    <g id="Group_2" data-name="Group 2">
      <rect id="Rectangle_106" data-name="Rectangle 106" width="24" height="24" fill="none"/>
    </g>
    <g id="Group_6" data-name="Group 6">
      <g id="Group_5" data-name="Group 5">
        <g id="Group_4" data-name="Group 4">
          <g id="Group_3" data-name="Group 3">
            <path id="Path_6" data-name="Path 6" d="M19,16H17a2.89,2.89,0,0,0-1.87-2.7L8.97,11H1V22H7V20.56l7,1.94L22,20V19A3,3,0,0,0,19,16ZM3,20V13H5v7Zm10.97.41L7,18.48V13H8.61l5.82,2.17A.89.89,0,0,1,15,16a22.023,22.023,0,0,1-2.3-.15l-2.38-.79-.63,1.9,2.38.79a4.984,4.984,0,0,0,1.58.26H19a1.008,1.008,0,0,1,.9.56Z"/>
            <g id="inventory_2_black_24dp" transform="translate(8.531 -0.985)">
              <g id="Group_7" data-name="Group 7" transform="translate(0 -0.015)">
                <rect id="Rectangle_107" data-name="Rectangle 107" width="16" height="14" transform="translate(0.469)" fill="none"/>
              </g>
              <g id="Group_9" data-name="Group 9" transform="translate(2 2)">
                <g id="Group_8" data-name="Group 8">
                  <path id="Path_7" data-name="Path 7" d="M13.222,2H3.247A1.189,1.189,0,0,0,2,3V4.5a1,1,0,0,0,.623.844v5.642c0,.549.686,1,1.247,1H12.6c.561,0,1.247-.449,1.247-1V5.345a1,1,0,0,0,.623-.844V3A1.189,1.189,0,0,0,13.222,2ZM12.6,10.987H3.87V5.495H12.6Zm.623-6.49H3.247V3h9.975Z" transform="translate(-2 -2)"/>
                  <rect id="Rectangle_108" data-name="Rectangle 108" width="6" height="1" transform="translate(3.469 4.985)"/>
                </g>
              </g>
            </g>
          </g>
        </g>
      </g>
    </g>
  </g>
</svg>
